<svg width="14" height="8" viewBox="0 0 14 8" fill="none" xmlns="http://www.w3.org/2000/svg">
<path d="M6.99994 7.99994C6.86833 8.0007 6.73787 7.97548 6.61603 7.92571C6.4942 7.87595 6.38338 7.80262 6.28994 7.70994L0.289941 1.70994C0.101638 1.52164 -0.00415039 1.26624 -0.00415039 0.999941C-0.00415039 0.73364 0.101638 0.478245 0.289941 0.289941C0.478245 0.101638 0.73364 -0.00415039 0.999941 -0.00415039C1.26624 -0.00415039 1.52164 0.101638 1.70994 0.289941L6.99994 5.58994L12.2899 0.299942C12.4812 0.136115 12.7273 0.0505086 12.979 0.0602298C13.2307 0.0699509 13.4694 0.174284 13.6475 0.352378C13.8256 0.530473 13.9299 0.769212 13.9397 1.02089C13.9494 1.27256 13.8638 1.51864 13.6999 1.70994L7.69994 7.70994C7.51368 7.89469 7.26228 7.99884 6.99994 7.99994Z" fill="black"/>
</svg>
