<svg width="138" height="74" viewBox="0 0 138 74" fill="none" xmlns="http://www.w3.org/2000/svg">
<path d="M135.011 70.6121C132.993 65.2271 130.939 59.7658 127.548 55.1231C124.157 50.4803 119.201 46.6771 113.495 45.977C107.789 45.2769 101.467 48.3589 99.6074 53.8018C98.7893 41.5395 97.0532 28.9562 90.9158 18.3099C84.7785 7.66102 73.3324 -0.70332 61.0708 0.0467869C49.5091 0.754782 39.6098 9.34547 34.1091 19.5443C28.6083 29.7431 26.7195 41.4421 24.9149 52.8885C20.5322 47.5088 11.2802 49.1985 6.70544 54.4177C2.13071 59.6368 0.973347 66.93 0 73.802H137.884L135.011 70.6121Z" fill="#F3EDF6"/>
</svg>
