<svg width="79" height="56" viewBox="0 0 79 56" fill="none" xmlns="http://www.w3.org/2000/svg">
<path d="M0 32.4913C0 32.4913 4.18535 26.4545 11.6861 22.8283C17.7716 19.8864 36.0979 13.3448 40.85 10.8168C49.537 6.19533 55.2276 0 55.2276 0L79 14.5836C79 14.5836 74.1578 20.5164 67.641 25.2722C61.0412 30.0885 43.4732 32.5355 34.7919 39.5193C29.1713 44.0409 22.7299 55.9079 22.7299 55.9079L0 32.4913Z" fill="#BDE377"/>
<path d="M21.8202 52.7067L2.90097 32.4532L3.174 31.996C3.29206 31.7983 6.17365 27.1043 15.6447 22.6959C18.6084 21.3164 22.905 19.5738 27.4537 17.7289C33.4533 15.2955 39.6571 12.7794 43.0383 10.9876C47.8459 8.43989 54.9901 2.12569 55.0616 2.06219L55.4514 1.71655L77.1057 14.7885L76.5936 15.4203C76.5454 15.4797 75.389 16.898 73.1472 18.9191C71.088 20.7757 67.6817 23.5126 63.1485 26.0082C59.11 28.2315 54.8213 29.5043 50.281 30.8519C43.9306 32.7365 37.3641 34.6854 31.5858 39.4684C27.2445 43.0619 22.3427 51.773 22.2937 51.8605L21.8202 52.7067ZM4.69094 32.2948L21.5401 50.3321C22.9061 48.0068 26.9095 41.5007 30.6828 38.3774C36.684 33.4099 43.3915 31.4192 49.8781 29.494C54.3432 28.1689 58.5606 26.9172 62.4655 24.7674C69.2537 21.0304 73.5199 16.7184 74.9539 15.1439L55.6086 3.46579C54.0195 4.84784 48.054 9.93219 43.7013 12.2389C40.2562 14.0645 34.0184 16.5945 27.9859 19.0412C23.4541 20.8793 19.1735 22.6154 16.2423 23.9798C11.5221 26.177 8.54943 28.439 6.88687 29.9497C5.74524 30.9871 5.04885 31.8213 4.69094 32.2948Z" fill="#6BA638"/>
<path d="M31.6121 16.7901C28.6131 18.2607 26.6579 21.9615 30.836 26.8871C35.014 31.8126 42.9946 32.8204 46.4869 31.609C49.9792 30.3976 50.9882 24.1179 47.5837 20.7188C44.1792 17.3196 38.416 13.4536 31.6121 16.7901Z" fill="#6BA638"/>
<path d="M22.5973 32.2693C23.3262 33.1888 23.3887 34.3528 22.737 34.8695C22.0853 35.3861 20.9661 35.0596 20.2373 34.1403C19.5085 33.2209 19.446 32.0568 20.0976 31.5402C20.7494 31.0235 21.8685 31.35 22.5973 32.2693Z" fill="#6BA638"/>
<path d="M60.1723 12.6407C61.031 13.4401 61.2676 14.5816 60.7009 15.1903C60.1342 15.799 58.9788 15.6443 58.1201 14.8448C57.2614 14.0454 57.0247 12.9039 57.5914 12.2952C58.1581 11.6865 59.3136 11.8412 60.1723 12.6407Z" fill="#6BA638"/>
</svg>
