<svg width="42" height="43" viewBox="0 0 42 43" fill="none" xmlns="http://www.w3.org/2000/svg">
<path d="M9.08162 17.9484C9.68433 18.167 11.7514 22.0695 19.7328 24.7067C23.3233 25.893 30.3365 24.0504 30.3365 24.0504L42 40.3861C42 40.3861 38.5797 41.8398 33.9459 42.0871C23.1631 42.6623 18.9182 39.3336 18.9182 39.3336L16.1838 36.8568L9.08162 17.9484Z" fill="#A8C469"/>
<path d="M13.6729 22.9562C13.6729 22.9562 18.0951 25.7703 21.3751 26.0241C24.0633 26.2322 29.9794 25.1892 29.9794 25.1892L40.0179 39.5375C40.0179 39.5375 32.2744 41.4771 28.4855 40.8935C16.6419 39.0695 16.2306 36.5541 16.2306 36.5541L15.6872 35.4967C15.6872 35.4967 20.8784 39.1205 28.1229 39.7432C33.7562 40.2274 38.1569 38.7201 38.1569 38.7201L29.5511 26.2428C29.5511 26.2428 24.532 27.2115 21.5688 26.9751C18.6056 26.7387 13.687 24.1307 13.687 24.1307L13.6729 22.9562Z" fill="#639334"/>
<path d="M11.3471 23.3683C12.9267 24.2382 15.956 25.6338 17.6318 27.6116C18.7769 28.963 20.7903 32.8556 20.5038 34.4654C20.3087 35.5622 19.2949 36.8523 17.1159 35.8151C14.9369 34.7781 12.8589 33.3454 12.8589 33.3454L11.3471 23.3683Z" fill="#639334"/>
<path d="M2.08665 0L17.0916 14.5546C17.0916 14.5546 14.6084 22.0245 14.9011 26.0837C15.6212 36.0686 18.9404 39.3501 18.9404 39.3501C18.9404 39.3501 15.134 37.2256 10.8585 31.3252C4.34554 22.3367 0.700088 14.6447 0.700088 14.6447C0.700088 14.6447 -0.209417 11.6433 0.0448688 8.57441C0.299154 5.50556 2.08665 0 2.08665 0Z" fill="#BDE377"/>
<path d="M17.0116 37.9646C17.0116 37.9646 14.146 34.2547 13.5303 27.9798C13.1708 24.3155 15.5523 15.2393 15.5523 15.2393L2.60916 2.06694C2.60916 2.06694 1.40832 6.11303 1.00144 8.60879C0.386537 12.3804 1.25085 15.8085 1.25085 15.8085L2.24521 17.6858C2.24521 17.6858 1.52369 15.2049 1.98748 10.2747C2.16552 8.38209 3.33829 4.47338 3.37374 4.56722C3.40918 4.66112 14.2259 15.7039 14.2259 15.7039C14.2259 15.7039 12.4752 24.3922 12.5619 27.3083C12.7299 32.9655 15.5017 36.7108 15.5017 36.7108L17.0116 37.9646Z" fill="#6BA638"/>
<path d="M13.0884 34.1485C13.0884 34.1485 12.6974 32.7436 10.9031 29.0008C9.51909 26.1138 7.01905 23.5663 6.32577 23.4346C5.87316 23.3486 5.73145 23.4805 5.68756 23.5826C7.13228 25.9293 8.87564 28.5911 10.8948 31.3776C11.6466 32.4151 12.3838 33.3355 13.0884 34.1485Z" fill="#6BA638"/>
<path d="M29.133 34.5017C28.5547 34.9034 27.6241 34.5642 27.0544 33.744C26.4847 32.9239 26.4918 31.9334 27.0701 31.5317C27.6484 31.13 28.579 31.4692 29.1487 32.2893C29.7183 33.1095 29.7113 34.1 29.133 34.5017Z" fill="#639334"/>
<path d="M8.5515 17.8196C7.97138 18.3236 6.97018 18.1209 6.31532 17.3671C5.66046 16.6133 5.59986 15.5936 6.17997 15.0896C6.76008 14.5857 7.76128 14.7883 8.41615 15.5421C9.07107 16.296 9.13161 17.3156 8.5515 17.8196Z" fill="#6BA638"/>
<path d="M38.2163 39.3292C37.1406 40.1838 34.8145 39.1209 36.0955 37.7236C37.0144 36.7212 38.8806 38.0411 38.5731 39.0616L38.2163 39.3292Z" fill="#639334"/>
<path d="M29.2074 25.7712C27.5115 25.6289 27.4291 27.1255 29.029 27.461C29.712 27.6042 30.3061 27.7518 30.3669 26.9307C30.4083 26.3718 29.8272 25.7687 29.3857 25.7712H29.2074Z" fill="#639334"/>
<path d="M13.8655 14.6214C13.1621 13.7645 12.6141 14.9092 12.6167 15.6026C12.6194 16.2953 12.8242 17.2892 13.3974 17.7608C14.1814 18.4057 14.5189 17.5165 14.7376 16.6732C14.9497 15.8554 14.6907 15.4057 14.1331 14.7998L13.8655 14.6214Z" fill="#6BA638"/>
<path d="M2.80496 3.11493H2.53741C2.33659 4.27265 2.00267 8.02128 4.32104 6.68248C5.98323 5.72266 3.70804 3.82831 2.80496 3.11493Z" fill="#6BA638"/>
</svg>
