<svg width="64" height="55" viewBox="0 0 64 55" fill="none" xmlns="http://www.w3.org/2000/svg">
<path d="M44.4715 24.5516L28.3415 11.4353L26.3961 10.5042C22.9522 8.99272 19.9443 8.20787 13.7071 9.89679C7.63986 11.5397 4.00685e-05 20.5522 4.00685e-05 20.5522C4.00685e-05 20.5522 5.74027 20.9767 12.3738 25.2443C19.0073 29.512 20.7348 32.1832 20.7348 32.1832C20.7348 32.1832 24.8971 25.4847 29.8248 23.8953C35.9644 21.915 44.4715 24.5516 44.4715 24.5516Z" fill="#9EAF61"/>
<path d="M3.08046 19.6532L3.71272 18.9486C3.76343 18.8921 4.97763 17.5447 6.88094 15.9033C9.44728 13.69 11.9233 12.0845 14.2402 11.1312C18.9166 9.20695 24.6099 9.90389 31.1619 13.2025L30.8382 13.9907C24.6467 10.8735 19.0502 10.5922 14.7469 12.3628C10.6566 14.0459 6.84578 17.6415 5.36004 19.15C7.02712 19.8492 10.5979 21.3868 12.7055 22.587C15.7545 24.3233 19.0285 27.2392 20.2794 28.3973C21.1768 27.353 23.2673 25.0666 25.6428 23.4703C28.3424 21.6562 31.0363 21.2281 32.8207 21.1884C34.7632 21.1452 36.0703 21.535 36.125 21.5516L35.7379 22.8259C35.7275 22.8228 34.542 22.475 32.7984 22.5212C30.4806 22.5826 28.3231 23.2739 26.3857 24.5757C23.4586 26.5426 20.8839 29.7497 20.8582 29.7818L20.4016 30.354L19.875 29.8456C19.8335 29.8055 15.6858 25.8168 12.0464 23.7443C9.3633 22.2163 4.01098 20.0321 3.95721 20.0102L3.08046 19.6532Z" fill="#639334"/>
<path d="M29.171 12.6691C27.254 11.7744 22.6509 13.329 26.1853 16.9098C30.0189 20.7936 33.2773 21.6927 35.1381 21.9912C36.9989 22.2898 33.1015 15.7797 33.1015 15.7797L29.171 12.6691Z" fill="#639334"/>
<path d="M26.396 10.5043C26.396 10.5043 30.867 12.4391 33.9825 22.0595C35.9722 28.2038 36.394 43.5713 36.394 43.5713C36.394 43.5713 40.1606 41.8376 45.0473 41.9058C52.987 42.0165 56.866 43.1897 56.866 43.1897C56.866 43.1897 56.5847 35.3808 52.3617 29.7622C42.1775 16.2124 26.396 10.5043 26.396 10.5043Z" fill="#BDE377"/>
<path d="M54.8515 41.5345L55.87 41.8812L55.6592 40.8262C55.6058 40.559 54.3171 34.2208 51.2895 28.9719C50.848 28.2066 50.3564 27.4318 49.8381 26.6659C47.8107 24.3715 45.647 22.3419 43.4837 20.5633C45.5098 22.5377 48.4214 24.6369 50.6959 29.7328C52.5127 33.8031 53.7228 38.0554 54.2118 40.0568C52.6924 39.6569 49.6577 39.0165 46.0581 39.1051C43.1815 39.1759 40.0967 39.6381 38.7366 39.8643C38.6234 36.893 38.1165 25.7106 36.7812 21.7299C35.5994 18.2071 33.6931 15.1556 32.3019 13.2161C32.2789 13.184 32.2787 13.1952 32.2558 13.1635C31.3112 12.6656 30.533 12.325 29.7749 11.967C31.3058 13.8067 34.0598 17.5164 35.6056 22.1243C37.0608 26.4623 37.518 40.4755 37.5225 40.6165L37.5453 41.3389L38.2557 41.2066C38.2971 41.1988 42.4355 40.4347 46.0886 40.3448C50.9322 40.2255 54.8131 41.5215 54.8515 41.5345Z" fill="#6BA638"/>
<path d="M32.2559 13.1635C32.8723 14.2129 37.0963 19.422 41.0432 21.3565C44.9901 23.2908 46.2387 23.2509 44.9944 21.9496C43.7501 20.6483 42.4333 19.4033 39.1149 17.1549C35.7965 14.9064 32.2559 13.1635 32.2559 13.1635Z" fill="#6BA638"/>
<path d="M46.4093 32.9926C45.4042 32.9394 44.6183 32.3501 44.6539 31.6762C44.6896 31.0024 45.5332 30.4992 46.5383 30.5522C47.5434 30.6054 48.3293 31.1947 48.2936 31.8686C48.2581 32.5425 47.4143 33.0458 46.4093 32.9926Z" fill="#6BA638"/>
<path d="M18.5815 20.7369C17.8119 20.0882 17.5406 19.1441 17.9755 18.628C18.4105 18.1121 19.3869 18.2197 20.1564 18.8684C20.926 19.5171 21.1973 20.4612 20.7624 20.9772C20.3274 21.4932 19.351 21.3856 18.5815 20.7369Z" fill="#639334"/>
</svg>
