<svg width="35" height="54" viewBox="0 0 35 54" fill="none" xmlns="http://www.w3.org/2000/svg">
<path d="M12.0785 0C12.0785 0 7.22735 4.72966 5.98177 10.6829C4.73612 16.6362 6.32565 29.85 4.36433 34.3054C2.40295 38.7607 0 42.9422 0 42.9422L22.8219 54C22.8219 54 27.2949 43.6458 27.7579 38.9245C28.4024 32.3512 25.4959 23.7823 27.0003 19.4649C28.7854 14.3419 34.3679 5.18557 34.3679 5.18557L12.0785 0Z" fill="#BDE377"/>
<path d="M12.7486 1.52069C12.7486 1.52069 8.99717 6.38228 7.86816 11.8884C6.73902 17.3946 7.7651 29.5293 6.08525 33.6705C4.4054 37.8117 2.37277 41.7097 2.37277 41.7097L21.5512 51.204C21.5512 51.204 24.5844 45.0559 25.8797 38.7403C26.9269 33.6341 24.0764 23.3526 25.2647 19.3058C26.453 15.259 31.2463 6.32045 31.2463 6.32045L12.7486 1.52069Z" fill="#6BA638"/>
<path d="M23.6381 18.9455C24.765 14.2208 28.944 7.23787 28.944 7.23787L13.7308 3.09003C13.7308 3.09003 10.7162 6.37963 9.22055 12.362C7.92196 17.5563 8.98881 29.7741 7.50676 33.7402C6.02478 37.7062 4.25589 41.4492 4.25589 41.4492L20.5406 48.6009C20.5406 48.6009 22.988 43.8887 24.3245 38.3926C25.8597 32.0787 22.7074 22.8478 23.6381 18.9455Z" fill="#BDE377"/>
<path d="M8.13636 22.6789C8.08554 19.2162 10.0954 17.3853 15.279 18.427C21.2404 19.625 24.7036 23.3219 24.6453 25.7366C24.5869 28.1513 24.1936 33.2992 17.0208 31.8876C12.2503 30.9487 7.85617 27.1854 7.86014 25.496C7.86411 23.8065 8.13636 22.6789 8.13636 22.6789Z" fill="#6BA638"/>
<path d="M20.3137 11.34C19.9941 12.0479 19.1313 12.3492 18.3865 12.013C17.6417 11.6768 17.297 10.8303 17.6167 10.1224C17.9362 9.41448 18.7991 9.11317 19.5438 9.44937C20.2885 9.78564 20.6331 10.632 20.3137 11.34Z" fill="#6BA638"/>
<path d="M15.015 41.0614C14.6955 41.7693 13.8326 42.0706 13.0879 41.7344C12.3432 41.3982 11.9984 40.5518 12.3181 39.8439C12.6377 39.136 13.5005 38.8346 14.2451 39.1708C14.9899 39.507 15.3346 40.3534 15.015 41.0614Z" fill="#6BA638"/>
</svg>
