<svg width="74" height="46" viewBox="0 0 74 46" fill="none" xmlns="http://www.w3.org/2000/svg">
<path d="M35.0433 1.78746C37.5714 2.04596 41.5211 3.34448 46.8042 17.8715C52.5756 33.7416 74.0001 45.3606 74.0001 45.3606L38.9223 43.7256C38.9223 43.7256 28.4223 39.6153 22.1484 26.9397C15.8746 14.2641 13.7841 0.785767 13.7841 0.785767L35.0433 1.78746Z" fill="#9EAF61"/>
<path d="M49.3336 25.565C43.9173 17.6818 42.7 10.0462 39.6264 6.29866C36.1196 2.02296 31.6735 2.31009 31.6735 2.31009L31.0417 2.75408C32.7167 2.7786 35.047 3.5475 37.8474 6.39214C40.1563 8.73736 43.8562 20.9155 48.2366 26.9527C51.3624 31.2606 64.5852 42.4043 64.5852 42.4043L38.5089 40.8399C38.5089 40.8399 28.0818 34.29 23.4021 23.7868C21.9903 20.618 19.4191 12.7164 19.4191 12.7164L24.674 7.22919L17.9691 11.9413C17.9691 11.9413 19.2501 18.7677 23.0265 26.0276C28.9171 37.3517 38.6646 42.2971 38.6646 42.2971L68.7516 43.7735C68.7516 43.7735 55.1981 34.1007 49.3336 25.565Z" fill="#639334"/>
<path d="M0 8.38767C0 8.38767 1.43764 5.64502 4.50218 3.43435C9.18301 0.057717 14.005 0 14.005 0L35.0432 1.78752C35.0432 1.78752 32.0739 1.48987 29.0067 4.55679C25.2347 8.32849 24.8127 14.346 24.8127 14.346L0 8.38767Z" fill="#BDE377"/>
<path d="M21.9815 21.5542C23.7162 27.5126 28.4246 28.241 33.7234 28.1202C43.1245 27.9058 46.0807 23.2476 44.3226 18.927C42.0718 13.3949 37.1017 13.552 31.7396 14.1608C25.3301 14.8883 20.5066 16.4886 21.9815 21.5542Z" fill="#639334"/>
<path d="M30.9479 1.44849C30.9479 1.44849 28.7214 1.34815 25.6266 4.37921C24.1826 5.79335 22.0632 10.3503 22.0632 10.3503L5.23923 6.84535C5.23923 6.84535 6.39387 4.68235 8.9534 2.952C11.5129 1.22165 16.993 0.254344 16.993 0.254344L15.1477 0.098204L15.1407 0.0966492C15.1407 0.0966492 9.85513 1.18936 7.8275 2.46583C3.95756 4.90197 2.33093 7.40342 2.33093 7.40342L23.2177 12.2769C23.2177 12.2769 24.7613 7.25724 26.2636 5.33096C28.9158 1.93054 32.7178 1.59905 32.7178 1.59905L30.9479 1.44849Z" fill="#6BA638"/>
<path d="M45.0413 33.7937C45.0857 34.6413 43.6415 35.4063 41.8153 35.5022C39.9892 35.598 38.4727 34.9886 38.4282 34.141C38.3838 33.2933 39.828 32.5284 41.6542 32.4325C43.4804 32.3365 44.9968 32.946 45.0413 33.7937Z" fill="#639334"/>
<path d="M27.4781 1.13363L21.4635 0.622589C21.9709 1.1286 22.8828 1.5801 23.9733 1.80786C25.6488 2.15756 27.1504 1.85515 27.4781 1.13363Z" fill="#6BA638"/>
<path d="M5.05547 5.50223C6.50254 3.91705 9.098 6.16338 7.0829 7.38863C6.41919 7.7922 5.08061 7.60962 4.53773 6.97335C3.77423 6.07895 4.56272 6.07539 5.05547 5.22782V5.50223Z" fill="#6BA638"/>
<path d="M22.2053 11.2647C20.4553 11.4447 18.2187 9.80204 20.5253 8.62417C22.7691 7.47841 23.9052 10.5783 22.4797 10.853L22.2053 11.2647Z" fill="#6BA638"/>
<path d="M36.474 40.0764C35.9657 37.5048 40.8179 38.7694 40.2916 41.4245C39.0989 42.1756 36.9537 41.6802 36.1996 40.4881L36.474 40.0764Z" fill="#639334"/>
<path d="M63.7767 43.0948C62.6824 42.6724 59.2867 41.7967 61.9932 40.5186C63.7349 39.6961 64.9403 41.502 65.5432 42.797C65.1641 42.9246 64.7557 43.0081 64.3256 42.9576L63.7767 43.0948Z" fill="#639334"/>
</svg>
