<svg width="327" height="391" viewBox="0 0 327 391" fill="none" xmlns="http://www.w3.org/2000/svg">
<path d="M74.3607 34.7516C72.8231 31.2873 76.696 27.9023 79.9539 29.8395C113.036 49.5095 195.891 111.997 209.25 250.256C226.012 423.722 274.825 477.579 326.935 505.493C326.935 505.493 262.876 501.11 211.206 446.934C84.343 313.918 101.699 96.3497 74.3607 34.7516Z" fill="#BDD0FB"/>
<path d="M106.873 82.9014C114.457 100.948 121.682 119.135 128.231 137.56C134.876 155.948 140.96 174.528 146.456 193.271C151.881 212.034 156.952 230.896 161.214 249.945C165.562 268.974 169.088 288.168 172.56 307.452C176.139 326.706 179.634 346.122 185.127 365.239C190.592 384.322 198.422 403.058 209.444 419.809C212.196 423.983 215.035 428.122 218.09 432.053C221.073 436.043 224.233 439.901 227.461 443.701C233.957 451.271 240.966 458.423 248.474 465.022C263.526 478.184 280.57 489.043 298.56 497.446C300.453 498.33 302.705 497.512 303.59 495.619C304.458 493.76 303.685 491.555 301.864 490.638L301.851 490.632C297.533 488.464 293.246 486.25 289.072 483.852C286.965 482.686 284.915 481.43 282.841 480.212C280.817 478.917 278.741 477.701 276.759 476.345C268.74 471.057 261.102 465.212 253.934 458.832C239.55 446.155 226.987 431.264 216.43 415.28C211.24 407.226 206.652 398.804 202.729 390.058C198.812 381.308 195.561 372.244 192.824 362.987C187.348 344.463 183.73 325.274 180.013 306.047C176.271 286.821 172.379 267.527 167.698 248.423C165.384 238.866 162.899 229.351 160.244 219.886C158.944 215.146 157.552 210.432 156.169 205.716C154.741 201.014 153.287 196.32 151.795 191.639C145.793 172.924 139.222 154.402 132.076 136.113C124.841 117.859 117.125 99.8024 108.726 82.0739C108.486 81.5671 107.881 81.3509 107.374 81.5909C106.882 81.8242 106.665 82.4043 106.873 82.9014Z" fill="white"/>
<path d="M249.399 495.236C248.91 502.202 241.466 506.406 235.207 503.308C200.671 486.214 107.397 429.052 78.003 299.313C53.1806 189.754 29.3097 132.705 16.6785 107.559C14.0075 102.241 19.6775 96.6045 24.9844 99.2964C83.5355 128.997 267.086 242.793 249.399 495.236Z" fill="#91B3FA"/>
</svg>
