<svg width="155" height="544" viewBox="0 0 155 544" fill="none" xmlns="http://www.w3.org/2000/svg">
<path d="M26.3923 34.7516C24.8547 31.2873 28.7276 27.9023 31.9855 29.8395C65.0681 49.5095 147.922 111.997 161.282 250.256C178.043 423.722 226.856 477.579 278.967 505.493C278.967 505.493 214.908 501.11 163.237 446.934C36.3746 313.918 53.7311 96.3496 26.3923 34.7516Z" fill="#BDD0FB"/>
<path d="M58.9045 82.9014C66.4889 100.948 73.7133 119.135 80.2625 137.56C86.9072 155.947 92.9916 174.528 98.488 193.271C103.912 212.034 108.983 230.896 113.246 249.945C117.594 268.974 121.12 288.168 124.592 307.452C128.17 326.706 131.665 346.122 137.159 365.239C142.624 384.322 150.454 403.058 161.476 419.809C164.228 423.983 167.067 428.122 170.121 432.053C173.104 436.043 176.265 439.901 179.493 443.701C185.989 451.271 192.998 458.423 200.506 465.022C215.557 478.183 232.602 489.043 250.592 497.446C252.485 498.33 254.737 497.512 255.621 495.619C256.49 493.76 255.716 491.555 253.896 490.638L253.883 490.632C249.565 488.464 245.277 486.25 241.103 483.852C238.997 482.686 236.946 481.429 234.873 480.212C232.849 478.917 230.773 477.701 228.791 476.345C220.771 471.057 213.133 465.212 205.965 458.832C191.582 446.155 179.019 431.264 168.462 415.28C163.271 407.226 158.684 398.804 154.76 390.058C150.843 381.308 147.592 372.244 144.856 362.987C139.379 344.463 135.761 325.274 132.045 306.047C128.303 286.821 124.41 267.527 119.73 248.423C117.416 238.866 114.93 229.351 112.276 219.886C110.976 215.146 109.584 210.432 108.201 205.716C106.773 201.014 105.319 196.319 103.827 191.638C97.8245 172.924 91.2536 154.402 84.1072 136.113C76.8731 117.859 69.1568 99.8023 60.7579 82.0738C60.5175 81.567 59.9126 81.3509 59.4059 81.5909C58.9137 81.8241 58.6965 82.4042 58.9045 82.9014Z" fill="white"/>
</svg>
